<svg version="1.2" xmlns="http://www.w3.org/2000/svg" viewBox="0 0 512 512" width="512" height="512">
	<title>deamtest-svg</title>
	<style>
		.s0 { fill: #6bbe66 } 
		.s1 { fill: #ff4141 } 
		.s2 { fill: #00a1f1 } 
		.s3 { fill: #ffffff } 
	</style>
	<path id="Layer" class="s0" d="m235.9 459.2c-24.8 19.1-55.8 30.5-89.5 30.5-80.9 0-146.4-65.5-146.4-146.2 0-56.1 31.6-104.7 77.8-129.3 8.2 29 23.7 54.9 44.4 75.6 19.3 19.3 43.2 34.1 69.9 42.6q-0.4 5.6-0.4 11.3c0 44.4 16.7 84.8 44.2 115.5z"/>
	<path id="Layer" class="s1" d="m511.5 343.7c0 80.8-65.5 146.3-146.4 146.3-80.8 0-146.3-65.5-146.3-146.3q0-2.5 0.1-5.1c8.4 1.3 17.1 1.9 25.9 1.9 47.9 0 91.2-19.4 122.6-50.7 22.7-22.7 39.2-51.6 46.5-84 56.9 20.1 97.6 74.2 97.6 137.9z"/>
	<path id="Layer" class="s2" d="m244.8 313.5c-80.9 0-146.4-65.4-146.4-146.3 0-80.8 65.5-146.2 146.4-146.2 80.9 0 146.4 65.4 146.4 146.2 0 80.9-65.5 146.3-146.4 146.3z"/>
	<path id="&lt;/&gt;" class="s3" d="m114.6 170.8c0 5.8 2 9.6 5.4 12.7l51.7 47.3c4.1 3.8 8 0.7 8-4.8v-20.2c0-7.2-3.6-11.7-8-15.8l-24.2-22.1 24.2-22.1c4.4-4 8-8.6 8-15.8v-20.2c0-5.5-3.9-8.6-8-4.8l-51.7 47.3c-3.4 3.1-5.4 7-5.4 12.7zm155-71.8c-7.4 0-13.2 4.4-15.8 11.1l-54 110.9c-2.4 5.8-1.5 11 3.2 11h15.2c7.5 0 13.2-4.3 15.8-11l54-110.9c2.4-5.8 1.5-11.1-3.2-11.1zm100.7 66.1c0-5.8-2-9.6-5.4-12.7l-51.7-47.3c-4.1-3.9-8-0.7-8 4.8v20.1c0 7.2 3.5 11.8 8 15.9l24.2 22.1-24.2 22c-4.5 4.1-8 8.7-8 15.9v20.1c0 5.6 3.9 8.7 8 4.8l51.7-47.2c3.4-3.2 5.4-7 5.4-12.8z"/>
</svg>